<svg width="137" height="49" viewBox="0 0 137 49" fill="none" xmlns="http://www.w3.org/2000/svg">
<path d="M40.4412 2.05335L46.5943 16.811L52.7702 2.05335H54.6493V18.7748H53.24V11.4936L53.3546 4.02869L47.1442 18.7748H46.0557L39.8683 4.08611L39.9829 11.4477V18.7748H38.5735V2.05335H40.4412Z" fill="#343A40"/>
<path d="M58.5043 12.3779C58.5043 11.1836 58.7335 10.1078 59.1918 9.15079C59.6578 8.19374 60.3109 7.45108 61.1512 6.92279C61.9991 6.38684 62.9577 6.11887 64.0272 6.11887C65.6771 6.11887 67.0139 6.70075 68.0375 7.86452C69.0611 9.02063 69.5729 10.5557 69.5729 12.4698V12.7569C69.5729 13.959 69.3399 15.0424 68.874 16.0071C68.4156 16.9641 67.7663 17.7029 66.9261 18.2236C66.0858 18.7442 65.1271 19.0045 64.0501 19.0045C62.4077 19.0045 61.0709 18.4265 60.0397 17.2704C59.0161 16.1066 58.5043 14.5677 58.5043 12.6536V12.3779ZM59.8793 12.7569C59.8793 14.2423 60.2612 15.4635 61.0251 16.4205C61.7966 17.3699 62.805 17.8446 64.0501 17.8446C65.2875 17.8446 66.2882 17.3699 67.0521 16.4205C67.8236 15.4635 68.2094 14.204 68.2094 12.6421V12.3779C68.2094 11.4286 68.0337 10.5596 67.6823 9.77095C67.3309 8.98235 66.8382 8.37367 66.2042 7.94491C65.5702 7.5085 64.8445 7.29029 64.0272 7.29029C62.805 7.29029 61.8081 7.77264 61.0366 8.73735C60.2651 9.69439 59.8793 10.95 59.8793 12.5043V12.7569Z" fill="#343A40"/>
<path d="M72.5685 12.4468C72.5685 10.5174 72.9963 8.98235 73.8518 7.84155C74.715 6.6931 75.8837 6.11887 77.358 6.11887C79.0309 6.11887 80.3066 6.78115 81.1851 8.1057V1.13458H82.5486V18.7748H81.2653L81.208 17.1211C80.3295 18.3767 79.0386 19.0045 77.3351 19.0045C75.9067 19.0045 74.7532 18.4303 73.8748 17.2818C73.0039 16.1257 72.5685 14.5677 72.5685 12.6076V12.4468ZM73.955 12.688C73.955 14.2729 74.272 15.5247 74.906 16.4435C75.54 17.3546 76.4337 17.8101 77.5872 17.8101C79.2754 17.8101 80.4746 17.0636 81.1851 15.5706V9.7365C80.4746 8.12101 79.283 7.31326 77.6101 7.31326C76.4567 7.31326 75.5591 7.76882 74.9174 8.67992C74.2758 9.58337 73.955 10.9194 73.955 12.688Z" fill="#343A40"/>
<path d="M94.6878 18.7748C94.5503 18.3844 94.4625 17.8063 94.4243 17.0407C93.943 17.6685 93.3281 18.1547 92.5795 18.4992C91.8385 18.8361 91.0517 19.0045 90.2191 19.0045C89.0275 19.0045 88.0612 18.6715 87.3202 18.0054C86.5869 17.3393 86.2202 16.4971 86.2202 15.4788C86.2202 14.2691 86.7206 13.312 87.7212 12.6076C88.7296 11.9032 90.1313 11.5511 91.9264 11.5511H94.4128V10.1385C94.4128 9.25032 94.1378 8.55359 93.5878 8.04827C93.0455 7.5353 92.251 7.27881 91.2045 7.27881C90.2497 7.27881 89.4591 7.52381 88.8327 8.01382C88.2063 8.50383 87.8931 9.09337 87.8931 9.78244L86.5181 9.77095C86.5181 8.78328 86.9765 7.9296 87.8931 7.2099C88.8098 6.48255 89.9365 6.11887 91.2733 6.11887C92.6559 6.11887 93.7444 6.46724 94.5388 7.16396C95.3409 7.85304 95.7534 8.81774 95.7763 10.0581V15.9381C95.7763 17.1402 95.9024 18.0398 96.1544 18.637V18.7748H94.6878ZM90.3795 17.7872C91.2962 17.7872 92.1135 17.5651 92.8316 17.1211C93.5573 16.677 94.0843 16.0836 94.4128 15.341V12.6076H91.9608C90.5934 12.6229 89.524 12.8756 88.7525 13.3656C87.981 13.848 87.5952 14.5141 87.5952 15.3639C87.5952 16.0607 87.8511 16.6387 88.3629 17.0981C88.8823 17.5575 89.5546 17.7872 90.3795 17.7872Z" fill="#343A40"/>
<path d="M102.395 17.4173C102.395 14.4466 103.054 12.0831 104.373 10.3266C105.704 8.55835 107.506 7.67422 109.779 7.67422C112.359 7.67422 114.325 8.69391 115.68 10.7333V0H117.782V27.1604H115.804L115.715 24.6141C114.361 26.5474 112.37 27.514 109.744 27.514C107.542 27.514 105.763 26.6299 104.409 24.8616C103.066 23.0816 102.395 20.6827 102.395 17.6649V17.4173ZM104.532 17.7886C104.532 20.2288 105.021 22.1562 105.999 23.5708C106.976 24.9736 108.354 25.675 110.133 25.675C112.735 25.675 114.585 24.5257 115.68 22.2269V13.2442C114.585 10.7569 112.747 9.5132 110.168 9.5132C108.39 9.5132 107.006 10.2146 106.016 11.6174C105.027 13.0085 104.532 15.0655 104.532 17.7886Z" fill="#343A40"/>
<path d="M133.604 27.1604C133.392 26.5592 133.257 25.6691 133.198 24.4903C132.456 25.457 131.508 26.2055 130.354 26.736C129.211 27.2547 127.998 27.514 126.714 27.514C124.877 27.514 123.387 27.0012 122.245 25.9756C121.114 24.9501 120.549 23.6533 120.549 22.0855C120.549 20.2229 121.32 18.7494 122.863 17.6649C124.418 16.5803 126.579 16.0381 129.347 16.0381H133.18V13.8631C133.18 12.4957 132.756 11.4229 131.908 10.6449C131.072 9.85507 129.847 9.46016 128.234 9.46016C126.761 9.46016 125.542 9.83739 124.577 10.5918C123.611 11.3463 123.128 12.254 123.128 13.315L121.008 13.2973C121.008 11.7766 121.715 10.4622 123.128 9.35406C124.541 8.23417 126.278 7.67422 128.34 7.67422C130.471 7.67422 132.15 8.21059 133.374 9.28333C134.611 10.3443 135.247 11.8296 135.282 13.7393V22.7928C135.282 24.6436 135.477 26.0287 135.865 26.9482V27.1604H133.604ZM126.962 25.6397C128.375 25.6397 129.635 25.2978 130.742 24.6141C131.861 23.9304 132.674 23.0168 133.18 21.8733V17.6649H129.4C127.291 17.6884 125.642 18.0774 124.453 18.8319C123.263 19.5746 122.669 20.6002 122.669 21.9087C122.669 22.9814 123.063 23.8714 123.852 24.5787C124.653 25.286 125.69 25.6397 126.962 25.6397Z" fill="#343A40"/>
<path d="M45.9753 24.3027L51.3934 41.1071L56.7949 24.3027H64.497V48.4559H58.6287V42.8158L59.1955 31.27L53.3273 48.4559H49.4596L43.5746 31.2534L44.1414 42.8158V48.4559H38.2899V24.3027H45.9753Z" fill="#343A40"/>
<path d="M77.0104 46.5151C75.8212 48.0302 74.2152 48.7877 72.1924 48.7877C70.2141 48.7877 68.7137 48.2182 67.6912 47.0791C66.6798 45.9289 66.1741 44.2811 66.1741 42.1356V30.5069H71.7923V42.1688C71.7923 43.706 72.5425 44.4746 74.0429 44.4746C75.3321 44.4746 76.2491 44.0157 76.7936 43.0978V30.5069H82.4452V48.4559H77.1771L77.0104 46.5151Z" fill="#343A40"/>
<path d="M89.7572 48.4559H84.1223V22.9756H89.7572V48.4559Z" fill="#343A40"/>
<path d="M97.0191 32.4312C98.2195 30.9271 99.7532 30.1751 101.62 30.1751C103.61 30.1751 105.11 30.7612 106.122 31.9335C107.133 33.1058 107.65 34.8366 107.672 37.1258V48.4559H102.037V37.2585C102.037 36.3074 101.843 35.6107 101.454 35.1683C101.065 34.7149 100.403 34.4882 99.4698 34.4882C98.3139 34.4882 97.497 34.8531 97.0191 35.5831V48.4559H91.4009V22.9756H97.0191V32.4312Z" fill="#343A40"/>
<path d="M117.818 48.7877C115.051 48.7877 112.811 47.9693 111.1 46.3326C109.388 44.6848 108.532 42.5448 108.532 39.9127V39.4482C108.532 37.6124 108.871 35.9922 109.549 34.5877C110.238 33.1832 111.239 32.0994 112.55 31.3363C113.861 30.5622 115.417 30.1751 117.218 30.1751C119.752 30.1751 121.753 30.9603 123.22 32.5307C124.687 34.0901 125.42 36.2687 125.42 39.0667V41.2398H114.25C114.451 42.2462 114.89 43.0369 115.567 43.612C116.245 44.1871 117.123 44.4746 118.202 44.4746C119.98 44.4746 121.369 43.8553 122.369 42.6167L124.937 45.6358C124.237 46.598 123.242 47.3666 121.953 47.9417C120.674 48.5057 119.296 48.7877 117.818 48.7877ZM117.185 34.4882C115.54 34.4882 114.562 35.572 114.25 37.7396H119.919V37.3083C119.941 36.4125 119.713 35.7213 119.235 35.2347C118.757 34.737 118.074 34.4882 117.185 34.4882Z" fill="#343A40"/>
<path d="M136.9 35.5665L135.049 35.4338C133.282 35.4338 132.149 35.9867 131.649 37.0926V48.4559H126.03V30.5069H131.298L131.482 32.8127C132.427 31.0543 133.744 30.1751 135.433 30.1751C136.033 30.1751 136.555 30.2415 137 30.3742L136.9 35.5665Z" fill="#343A40"/>
<path d="M3.847 12.3097C5.3858 10.7489 6.9246 9.34201 7.60607 9.62779C8.70521 10.0674 7.60607 11.892 6.94658 12.9692C6.39701 13.8925 0.659486 21.5205 0.659486 26.8404C0.659486 29.6542 1.71466 31.9844 3.60519 33.3913C5.2539 34.6223 7.43021 34.996 9.40866 34.4025C11.7608 33.721 13.6953 31.3249 16.1354 28.3132C18.7953 25.0378 22.3566 20.7511 25.1044 20.7511C28.6876 20.7511 28.7316 22.9714 28.9734 24.686C20.6639 26.0929 17.1466 32.7538 17.1466 36.4908C17.1466 40.2279 20.3122 43.2835 24.2031 43.2835C27.7863 43.2835 33.6338 40.3598 34.5131 29.874H39.9209V24.3783H34.4911C34.1614 20.7511 32.095 15.1455 25.632 15.1455C20.6859 15.1455 16.4432 19.3442 14.7725 21.3886C13.4975 22.9934 10.244 26.8404 9.73841 27.368C9.18884 28.0274 8.24357 29.2145 7.29831 29.2145C6.30908 29.2145 5.71554 27.3899 6.50693 24.9938C7.27633 22.5977 9.58453 18.7067 10.5738 17.2558C12.2884 14.7498 13.4315 13.0351 13.4315 10.0455C13.4315 5.27518 9.82634 3.75836 7.91383 3.75836C5.01209 3.75836 2.48406 5.95665 1.93449 6.50622C1.14311 7.2976 0.483623 7.95709 0 8.55062L3.847 12.3097ZM24.2691 37.9417C23.5876 37.9417 22.6423 37.3702 22.6423 36.3589C22.6423 35.04 24.2471 31.5227 28.9514 30.2917C28.2919 36.2051 25.8079 37.9417 24.2691 37.9417Z" fill="#343A40"/>
</svg>
